<svg xmlns="http://www.w3.org/2000/svg" width="24" height="24" viewBox="0 0 24 24">
    <g fill="none" fill-rule="evenodd">
        <path d="M0 0H24V24H0z"/>
        <path fill="#FFF" fill-rule="nonzero" d="M12.67 5c1.202 0 2.184.976 2.184 2.171 0 .514-.179.998-.494 1.373h1.128V6.727c0-.353.431-.529.68-.277l5.718 5.773c.152.154.152.4 0 .554l-5.717 5.773c-.25.252-.68.076-.68-.277V16.42l-1.157-.001c.326.38.522.871.522 1.409 0 1.198-.978 2.171-2.184 2.171H4.184C2.98 20 2 19.027 2 17.829c0-.735.368-1.385.93-1.778-.561-.394-.93-1.043-.93-1.775 0-.587.235-1.136.64-1.528.09-.092.187-.175.291-.248C2.37 12.107 2 11.456 2 10.724c0-.587.234-1.136.64-1.528.09-.092.188-.175.291-.249-.562-.393-.93-1.043-.93-1.776 0-.587.233-1.135.64-1.527C3.041 5.233 3.593 5 4.183 5h8.486zm0 11.448H4.184c-.766 0-1.389.618-1.389 1.38 0 .763.623 1.382 1.39 1.382h8.485c.767 0 1.39-.62 1.39-1.381 0-.763-.623-1.381-1.39-1.381zm3.613-8.756v1.247c0 .218-.178.395-.397.395l-2.933-.004-.04.008c-.055.01-.099.013-.166.014h-1.672v6.279h4.81c.22 0 .398.176.398.395v1.282l4.762-4.808-4.762-4.808zm-6.003 5.203H4.173l-.128.007c-.321.031-.615.172-.843.405-.26.251-.406.596-.406.969 0 .759.625 1.38 1.389 1.38h6.095v-2.761zm0-3.552H4.184c-.375 0-.721.146-.982.412-.26.251-.407.596-.407.969 0 .758.627 1.38 1.389 1.38h6.096V9.344zm2.39-3.553H4.184c-.375 0-.721.146-.982.412-.26.252-.407.596-.407.97 0 .758.626 1.38 1.39 1.38h6.41c.026-.005.054-.008.083-.008l2.141-.001.125-.019c.271-.055.518-.188.709-.384.26-.251.406-.595.406-.969 0-.758-.626-1.38-1.389-1.38z"/>
    </g>
</svg>
